<svg xmlns="http://www.w3.org/2000/svg" viewBox="0 0 1440 320"><path fill="#84563C" fill-opacity="1" d="M0,256L26.7,224C53.3,192,107,128,160,122.7C213.3,117,267,171,320,197.3C373.3,224,427,224,480,208C533.3,192,587,160,640,160C693.3,160,747,192,800,218.7C853.3,245,907,267,960,266.7C1013.3,267,1067,245,1120,202.7C1173.3,160,1227,96,1280,74.7C1333.3,53,1387,75,1413,85.3L1440,96L1440,0L1413.3,0C1386.7,0,1333,0,1280,0C1226.7,0,1173,0,1120,0C1066.7,0,1013,0,960,0C906.7,0,853,0,800,0C746.7,0,693,0,640,0C586.7,0,533,0,480,0C426.7,0,373,0,320,0C266.7,0,213,0,160,0C106.7,0,53,0,27,0L0,0Z"></path></svg>