<svg width="1590" height="913" viewBox="0 0 1590 913" fill="none" xmlns="http://www.w3.org/2000/svg">
<path d="M165 583H1539.5" stroke="white" stroke-width="25" stroke-linecap="round"/>
<path d="M121.507 661.5C132.096 659.265 147.556 654.638 164.507 649.401M274.007 708.5C276.007 706.5 280.507 634 266.007 626C260.221 622.808 241.83 626.595 219.507 632.786M164.507 649.401L187.507 708.5M164.507 649.401C182.508 643.839 202.191 637.589 219.507 632.786M219.507 632.786L236.007 708.5" stroke="white" stroke-width="15" stroke-linecap="round"/>
<path d="M284.507 23C284.507 23 337.507 153.599 312.507 127C287.507 100.401 213.601 58.7004 140.007 116C89.7465 155.133 72.9955 188.991 49.0069 248C25.3606 306.167 23.1628 345.71 23.0069 408.5C22.8757 461.326 24.4869 489.854 39.5067 540.5C55.2005 593.419 59.5065 616.5 98.5068 665.5C124.772 698.5 163.387 730.206 211.507 734C256.074 737.514 280.225 721.954 315.507 694.5C334.716 679.552 346.007 661.5 352.507 650C373.424 612.993 336.507 751 336.507 751" stroke="white" stroke-width="45" stroke-linecap="round"/>
<path d="M100.218 472.894C97.8679 408.44 53.7054 375.086 39.5068 360L49.299 520.141C123.719 591.757 135.959 487.317 100.218 472.894Z" fill="#F9BBC0" stroke="white" stroke-width="10" stroke-linecap="round"/>
<path d="M39.0068 416.5C49.1735 428.667 70.9068 460.3 76.5068 489.5" stroke="white" stroke-width="10" stroke-linecap="round"/>
<path d="M93.5068 187.5C148.201 167.587 191.616 162.196 221.507 159.872M255.507 111C264.174 120.833 275.507 142 267.507 153C263.755 158.159 247.906 157.819 221.507 159.872M200.507 106C205.674 119.581 217.107 149.369 221.507 159.872" stroke="white" stroke-width="15" stroke-linecap="round"/>
<path d="M163.007 118C169.174 126.667 181.107 148.2 179.507 165M136.507 133C140.674 143.167 148.607 164.9 147.007 170.5" stroke="white" stroke-width="15" stroke-linecap="round"/>
<circle cx="298.5" cy="324.5" r="17.5" fill="#F9BBC0"/>
<circle cx="383.5" cy="369.5" r="17.5" fill="#F9BBC0"/>
<circle cx="316" cy="405" r="125" stroke="#F9BBC0" stroke-width="35"/>
<circle cx="376.5" cy="454.5" r="17.5" fill="#F9BBC0"/>
<circle cx="293.5" cy="489.5" r="17.5" fill="#F9BBC0"/>
<circle cx="232.5" cy="404.5" r="17.5" fill="#F9BBC0"/>
<circle cx="315.5" cy="404.5" r="17.5" fill="#F9BBC0"/>
<path d="M572.5 281C510.613 305.381 491 333.5 489.5 400C488 466.5 516.361 500.407 572.5 524.5C623.09 546.211 668.256 533.694 711 499C750.5 466.938 760 393 760 393" stroke="#F9BBC0" stroke-width="35" stroke-linecap="round"/>
<path d="M760.5 392C760.5 392 713.228 424.826 683 414C660.099 405.798 648.5 372 643.5 370C638.5 368 599.405 373.63 581.5 356.5C559.624 335.571 571.5 283 571.5 283" stroke="white" stroke-width="35" stroke-linecap="round"/>
<circle cx="541.5" cy="402.5" r="17.5" fill="#F9BBC0"/>
<circle cx="618.5" cy="414.5" r="17.5" fill="#F9BBC0"/>
<circle cx="576.5" cy="478.5" r="17.5" fill="#F9BBC0"/>
<circle cx="681.5" cy="469.5" r="17.5" fill="#F9BBC0"/>
<path d="M825.1 483L803.4 459.2L910.85 363.3C914.35 360.033 918.2 358.517 922.4 358.75C926.833 358.983 930.567 360.85 933.6 364.35C936.867 367.85 938.383 371.7 938.15 375.9C937.917 380.1 936.05 383.833 932.55 387.1L825.1 483ZM808.65 553C803.517 553 799.317 551.483 796.05 548.45C793.017 545.183 791.5 540.983 791.5 535.85V296.8C791.5 291.667 793.017 287.583 796.05 284.55C799.317 281.283 803.517 279.65 808.65 279.65C813.783 279.65 817.867 281.283 820.9 284.55C824.167 287.583 825.8 291.667 825.8 296.8V535.85C825.8 540.983 824.167 545.183 820.9 548.45C817.867 551.483 813.783 553 808.65 553ZM933.6 551.25C929.867 554.283 925.667 555.567 921 555.1C916.567 554.867 912.833 552.883 909.8 549.15L838.75 461.3L863.25 438.2L936.05 527.8C939.083 531.533 940.367 535.617 939.9 540.05C939.667 544.25 937.567 547.983 933.6 551.25ZM977.118 553C971.984 553 967.668 551.367 964.168 548.1C960.901 544.6 959.268 540.283 959.268 535.15V379.4C959.268 374.033 960.901 369.717 964.168 366.45C967.668 363.183 971.984 361.55 977.118 361.55C982.484 361.55 986.801 363.183 990.068 366.45C993.334 369.717 994.968 374.033 994.968 379.4V535.15C994.968 540.283 993.334 544.6 990.068 548.1C986.801 551.367 982.484 553 977.118 553ZM977.118 330.4C970.818 330.4 965.334 328.183 960.668 323.75C956.234 319.083 954.018 313.6 954.018 307.3C954.018 301 956.234 295.633 960.668 291.2C965.334 286.533 970.818 284.2 977.118 284.2C983.418 284.2 988.784 286.533 993.218 291.2C997.884 295.633 1000.22 301 1000.22 307.3C1000.22 313.6 997.884 319.083 993.218 323.75C988.784 328.183 983.418 330.4 977.118 330.4ZM1116.33 554.4C1096.97 554.4 1079.7 550.317 1064.53 542.15C1049.6 533.75 1037.82 522.317 1029.18 507.85C1020.78 493.15 1016.58 476.35 1016.58 457.45C1016.58 438.317 1020.55 421.517 1028.48 407.05C1036.65 392.35 1047.85 380.917 1062.08 372.75C1076.32 364.35 1092.65 360.15 1111.08 360.15C1129.28 360.15 1144.92 364.233 1157.98 372.4C1171.05 380.333 1180.97 391.417 1187.73 405.65C1194.73 419.65 1198.23 435.867 1198.23 454.3C1198.23 458.733 1196.72 462.467 1193.68 465.5C1190.65 468.3 1186.8 469.7 1182.13 469.7H1041.08V441.7H1181.08L1166.73 451.5C1166.5 439.833 1164.17 429.45 1159.73 420.35C1155.3 411.017 1149 403.667 1140.83 398.3C1132.67 392.933 1122.75 390.25 1111.08 390.25C1097.78 390.25 1086.35 393.167 1076.78 399C1067.45 404.833 1060.33 412.883 1055.43 423.15C1050.53 433.183 1048.08 444.617 1048.08 457.45C1048.08 470.283 1051 481.717 1056.83 491.75C1062.67 501.783 1070.72 509.717 1080.98 515.55C1091.25 521.383 1103.03 524.3 1116.33 524.3C1123.57 524.3 1130.92 523.017 1138.38 520.45C1146.08 517.65 1152.27 514.5 1156.93 511C1160.43 508.433 1164.17 507.15 1168.13 507.15C1172.33 506.917 1175.95 508.083 1178.98 510.65C1182.95 514.15 1185.05 518 1185.28 522.2C1185.52 526.4 1183.65 530.017 1179.68 533.05C1171.75 539.35 1161.83 544.483 1149.93 548.45C1138.27 552.417 1127.07 554.4 1116.33 554.4ZM1278.42 554.4C1262.08 554.4 1246.92 551.95 1232.92 547.05C1219.15 541.917 1208.42 535.5 1200.72 527.8C1197.22 524.067 1195.7 519.867 1196.17 515.2C1196.87 510.3 1199.2 506.333 1203.17 503.3C1207.83 499.567 1212.38 498.05 1216.82 498.75C1221.48 499.217 1225.45 501.2 1228.72 504.7C1232.68 509.133 1238.98 513.333 1247.62 517.3C1256.48 521.033 1266.28 522.9 1277.02 522.9C1290.55 522.9 1300.82 520.683 1307.82 516.25C1315.05 511.817 1318.78 506.1 1319.02 499.1C1319.25 492.1 1315.87 486.033 1308.87 480.9C1302.1 475.767 1289.62 471.567 1271.42 468.3C1247.85 463.633 1230.7 456.633 1219.97 447.3C1209.47 437.967 1204.22 426.533 1204.22 413C1204.22 401.1 1207.72 391.3 1214.72 383.6C1221.72 375.667 1230.7 369.833 1241.67 366.1C1252.63 362.133 1264.07 360.15 1275.97 360.15C1291.37 360.15 1305.02 362.6 1316.92 367.5C1328.82 372.4 1338.27 379.167 1345.27 387.8C1348.53 391.533 1350.05 395.5 1349.82 399.7C1349.58 403.667 1347.6 407.05 1343.87 409.85C1340.13 412.417 1335.7 413.233 1330.57 412.3C1325.43 411.367 1321.12 409.267 1317.62 406C1311.78 400.4 1305.48 396.55 1298.72 394.45C1291.95 392.35 1284.13 391.3 1275.27 391.3C1265 391.3 1256.25 393.05 1249.02 396.55C1242.02 400.05 1238.52 405.183 1238.52 411.95C1238.52 416.15 1239.57 420 1241.67 423.5C1244 426.767 1248.43 429.8 1254.97 432.6C1261.5 435.167 1271.07 437.733 1283.67 440.3C1301.17 443.8 1314.93 448.233 1324.97 453.6C1335.23 458.967 1342.58 465.267 1347.02 472.5C1351.45 479.5 1353.67 487.667 1353.67 497C1353.67 507.733 1350.75 517.417 1344.92 526.05C1339.32 534.683 1330.92 541.567 1319.72 546.7C1308.75 551.833 1294.98 554.4 1278.42 554.4ZM1381.65 483.35C1376.52 483.35 1372.2 481.717 1368.7 478.45C1365.44 474.95 1363.8 470.633 1363.8 465.5V297.5C1363.8 292.133 1365.44 287.817 1368.7 284.55C1372.2 281.283 1376.52 279.65 1381.65 279.65C1387.02 279.65 1391.34 281.283 1394.6 284.55C1397.87 287.817 1399.5 292.133 1399.5 297.5V465.5C1399.5 470.633 1397.87 474.95 1394.6 478.45C1391.34 481.717 1387.02 483.35 1381.65 483.35ZM1525.5 553.35C1520.37 553.35 1516.05 551.717 1512.55 548.45C1509.29 544.95 1507.65 540.633 1507.65 535.5V449.4C1507.65 436.1 1505.2 425.25 1500.3 416.85C1495.4 408.45 1488.75 402.267 1480.35 398.3C1472.19 394.1 1462.74 392 1452 392C1442.2 392 1433.34 393.983 1425.4 397.95C1417.47 401.917 1411.17 407.283 1406.5 414.05C1401.84 420.583 1399.5 428.167 1399.5 436.8H1377.45C1377.45 422.1 1380.95 409.033 1387.95 397.6C1395.19 385.933 1404.99 376.717 1417.35 369.95C1429.72 363.183 1443.6 359.8 1459 359.8C1475.1 359.8 1489.45 363.3 1502.05 370.3C1514.89 377.067 1524.92 387.1 1532.15 400.4C1539.62 413.7 1543.35 430.033 1543.35 449.4V535.5C1543.35 540.633 1541.6 544.95 1538.1 548.45C1534.84 551.717 1530.64 553.35 1525.5 553.35ZM1381.65 553.35C1376.52 553.35 1372.2 551.717 1368.7 548.45C1365.44 544.95 1363.8 540.633 1363.8 535.5V379.4C1363.8 374.033 1365.44 369.717 1368.7 366.45C1372.2 363.183 1376.52 361.55 1381.65 361.55C1387.02 361.55 1391.34 363.183 1394.6 366.45C1397.87 369.717 1399.5 374.033 1399.5 379.4V535.5C1399.5 540.633 1397.87 544.95 1394.6 548.45C1391.34 551.717 1387.02 553.35 1381.65 553.35Z" fill="white"/>
<path d="M1252 595.407C1228.22 578.441 1232 565.5 1229.5 564.5C1225 559 1256.56 552.907 1256.56 552.907C1256.56 552.907 1294.83 548.083 1318.56 552.907C1328.73 554.974 1333.7 561.161 1344.06 560.407C1352.38 559.801 1355.87 554.497 1364.06 552.907C1381.36 549.547 1391.1 562.795 1408.56 560.407C1418.29 559.076 1422.36 549.951 1432.56 546C1454.22 537.602 1469.76 539.46 1492.06 546C1519 553.903 1568.56 560.407 1550.06 595.407C1531.56 630.407 1529.58 621.429 1520.56 640.407C1507.26 668.378 1489.51 699.738 1501 728.5C1505.72 740.325 1507.92 760.552 1513.5 772C1528.06 801.873 1520.56 829 1520.56 829C1520.56 829 1509.41 884.488 1481.5 897.5C1451.92 911.29 1418.85 905.643 1400 879C1381.4 852.717 1408.56 797 1408.56 797L1432.56 712.5C1432.56 712.5 1434.66 652.136 1414.56 626C1401.31 608.785 1402.46 601.219 1381.06 604.907C1358.33 608.822 1345.86 624.031 1338.56 645.907C1332.03 665.461 1342.85 677.828 1344.06 698.407C1345.62 724.917 1356.13 742.757 1344.06 766.407C1331.83 790.341 1314.21 812.586 1288.06 806.407C1261.46 800.122 1251.5 770.468 1245.06 743.907C1234.05 698.548 1304 632.5 1252 595.407Z" fill="#F8E4C5"/>
<path d="M1229.5 564.5C1232 565.5 1228.22 578.441 1252 595.407C1304 632.5 1234.05 698.548 1245.06 743.907C1251.5 770.468 1261.46 800.122 1288.06 806.407C1314.21 812.586 1331.83 790.341 1344.06 766.407C1356.13 742.757 1345.62 724.916 1344.06 698.407C1342.85 677.828 1332.03 665.461 1338.56 645.907C1345.86 624.031 1358.33 608.822 1381.06 604.907C1402.46 601.219 1401.31 608.785 1414.56 626C1434.66 652.136 1432.56 712.5 1432.56 712.5L1408.56 797C1408.56 797 1381.4 852.717 1400 879C1418.85 905.643 1451.92 911.29 1481.5 897.5C1509.41 884.488 1520.56 829 1520.56 829C1520.56 829 1528.06 801.873 1513.5 772C1507.92 760.552 1505.72 740.325 1501 728.5C1489.51 699.738 1507.26 668.378 1520.56 640.407C1529.58 621.429 1531.56 630.407 1550.06 595.407C1568.56 560.407 1519 553.903 1492.06 546C1469.76 539.46 1454.22 537.602 1432.56 546C1422.36 549.951 1418.29 559.076 1408.56 560.407C1391.1 562.795 1381.36 549.547 1364.06 552.907C1355.87 554.497 1352.38 559.801 1344.06 560.407C1333.7 561.161 1328.73 554.974 1318.56 552.907C1294.83 548.083 1256.56 552.907 1256.56 552.907C1256.56 552.907 1225 559 1229.5 564.5ZM1229.5 564.5C1234 570 1227 563.5 1229.5 564.5Z" stroke="#F8E4C5" stroke-width="15" stroke-linecap="round"/>
<path d="M1509 823.5C1507.17 846.5 1493.8 893.1 1455 895.5M1294 791.5C1307.67 790.833 1335 780.2 1335 743M1340.5 607.5C1351.67 597.167 1378.8 579.6 1398 592M1437.5 558C1447.17 554.5 1469.6 549.6 1482 558M1273 558C1268.5 557.667 1256.1 559.5 1242.5 569.5M1497.5 675C1493.67 689.333 1488.3 723 1497.5 743" stroke="white" stroke-width="15" stroke-linecap="round"/>
<circle cx="1434.5" cy="893.5" r="8.5" fill="white"/>
<circle cx="1338.5" cy="711.5" r="8.5" fill="white"/>
</svg>
